<?xml version="1.0" encoding="utf-8"?>
<!-- Generator: Adobe Illustrator 21.0.2, SVG Export Plug-In . SVG Version: 6.00 Build 0)  -->
<svg version="1.1" id="icon" xmlns="http://www.w3.org/2000/svg"  x="0px" y="0px"
	 viewBox="0 0 24 24" style="enable-background:new 0 0 24 24;" xml:space="preserve">
<path d="M21,0H3C1.3,0,0,1.3,0,3v18c0,1.7,1.3,3,3,3h18c1.7,0,3-1.3,3-3V3C24,1.3,22.7,0,21,0z M21,9.4L10.4,20
	c-0.4,0.4-1,0.4-1.4,0L3,14c-0.4-0.4-0.4-1,0-1.4l1.7-1.7c0.4-0.4,1-0.4,1.4,0l3.5,3.5c0,0,0,0,0,0l8.2-8.2c0.4-0.4,1-0.4,1.4,0
	L21,8C21.4,8.4,21.4,9,21,9.4z"/>
</svg>
